<mxfile host="app.diagrams.net" modified="2023-02-03T00:39:45.147Z" agent="5.0 (Windows NT 10.0; Win64; x64) AppleWebKit/537.36 (KHTML, like Gecko) Chrome/109.0.0.0 Safari/537.36 Edg/109.0.1518.70" etag="K2IjrybXIQyuedGlF9ps" version="20.8.15" type="github" pages="3">
  <diagram id="EjOF9qYVCjZfC-2aHMj2" name="Deploy System">
    <mxGraphModel dx="1434" dy="835" grid="1" gridSize="10" guides="1" tooltips="1" connect="1" arrows="1" fold="1" page="1" pageScale="1" pageWidth="1100" pageHeight="850" math="0" shadow="0">
      <root>
        <mxCell id="0" />
        <mxCell id="1" parent="0" />
        <mxCell id="FUQEfz81MvZAFA74_F34-1" value="" style="rounded=1;whiteSpace=wrap;html=1;fontSize=16;" parent="1" vertex="1">
          <mxGeometry x="110" y="80" width="230" height="310" as="geometry" />
        </mxCell>
        <mxCell id="FUQEfz81MvZAFA74_F34-2" value="JMob" style="rounded=1;whiteSpace=wrap;html=1;fontSize=16;" parent="1" vertex="1">
          <mxGeometry x="145" y="200" width="160" height="60" as="geometry" />
        </mxCell>
        <mxCell id="FUQEfz81MvZAFA74_F34-3" value="" style="rounded=1;whiteSpace=wrap;html=1;fontSize=16;" parent="1" vertex="1">
          <mxGeometry x="460" y="80" width="460" height="310" as="geometry" />
        </mxCell>
        <mxCell id="FUQEfz81MvZAFA74_F34-4" value="Huewei Tablet&lt;br&gt;(Android)" style="text;html=1;strokeColor=none;fillColor=none;align=center;verticalAlign=middle;whiteSpace=wrap;rounded=0;fontSize=16;" parent="1" vertex="1">
          <mxGeometry x="162.5" y="400" width="125" height="30" as="geometry" />
        </mxCell>
        <mxCell id="FUQEfz81MvZAFA74_F34-5" value="Server&lt;br&gt;(CentOS)" style="text;html=1;strokeColor=none;fillColor=none;align=center;verticalAlign=middle;whiteSpace=wrap;rounded=0;fontSize=16;" parent="1" vertex="1">
          <mxGeometry x="655" y="400" width="60" height="30" as="geometry" />
        </mxCell>
        <mxCell id="FUQEfz81MvZAFA74_F34-6" value="Apache" style="rounded=1;whiteSpace=wrap;html=1;fontSize=16;" parent="1" vertex="1">
          <mxGeometry x="495" y="145" width="120" height="180" as="geometry" />
        </mxCell>
        <mxCell id="FUQEfz81MvZAFA74_F34-7" value="Tomcat 6" style="rounded=1;whiteSpace=wrap;html=1;fontSize=16;" parent="1" vertex="1">
          <mxGeometry x="695" y="145" width="195" height="180" as="geometry" />
        </mxCell>
        <mxCell id="FUQEfz81MvZAFA74_F34-8" value="" style="endArrow=classic;startArrow=classic;html=1;rounded=0;fontSize=16;" parent="1" source="FUQEfz81MvZAFA74_F34-6" target="FUQEfz81MvZAFA74_F34-7" edge="1">
          <mxGeometry width="50" height="50" relative="1" as="geometry">
            <mxPoint x="400" y="310" as="sourcePoint" />
            <mxPoint x="450" y="260" as="targetPoint" />
          </mxGeometry>
        </mxCell>
        <mxCell id="FUQEfz81MvZAFA74_F34-9" value="CDBQ01&lt;br&gt;(qnet)" style="shape=cylinder3;whiteSpace=wrap;html=1;boundedLbl=1;backgroundOutline=1;size=15;fontSize=16;" parent="1" vertex="1">
          <mxGeometry x="675" y="480" width="125" height="120" as="geometry" />
        </mxCell>
        <mxCell id="FUQEfz81MvZAFA74_F34-10" value="Database (Oracle)" style="text;html=1;strokeColor=none;fillColor=none;align=center;verticalAlign=middle;whiteSpace=wrap;rounded=0;fontSize=16;" parent="1" vertex="1">
          <mxGeometry x="735" y="620" width="145" height="30" as="geometry" />
        </mxCell>
        <mxCell id="FUQEfz81MvZAFA74_F34-11" value="" style="endArrow=classic;startArrow=classic;html=1;rounded=0;fontSize=16;" parent="1" source="FUQEfz81MvZAFA74_F34-9" target="FUQEfz81MvZAFA74_F34-7" edge="1">
          <mxGeometry width="50" height="50" relative="1" as="geometry">
            <mxPoint x="425" y="390" as="sourcePoint" />
            <mxPoint x="475" y="340" as="targetPoint" />
          </mxGeometry>
        </mxCell>
        <mxCell id="FUQEfz81MvZAFA74_F34-12" value="" style="endArrow=classic;startArrow=classic;html=1;rounded=0;fontSize=16;" parent="1" source="FUQEfz81MvZAFA74_F34-1" target="FUQEfz81MvZAFA74_F34-6" edge="1">
          <mxGeometry width="50" height="50" relative="1" as="geometry">
            <mxPoint x="520" y="390" as="sourcePoint" />
            <mxPoint x="570" y="340" as="targetPoint" />
          </mxGeometry>
        </mxCell>
        <mxCell id="tQP5vjizUMR7VFuKNbxL-1" value="CDBF01&lt;br&gt;(tsms)" style="shape=cylinder3;whiteSpace=wrap;html=1;boundedLbl=1;backgroundOutline=1;size=15;fontSize=16;" parent="1" vertex="1">
          <mxGeometry x="815" y="480" width="125" height="120" as="geometry" />
        </mxCell>
        <mxCell id="tQP5vjizUMR7VFuKNbxL-2" value="" style="endArrow=classic;startArrow=classic;html=1;rounded=0;fontSize=16;" parent="1" source="tQP5vjizUMR7VFuKNbxL-1" target="FUQEfz81MvZAFA74_F34-7" edge="1">
          <mxGeometry width="50" height="50" relative="1" as="geometry">
            <mxPoint x="699.8880597014927" y="520" as="sourcePoint" />
            <mxPoint x="768.9179104477612" y="335" as="targetPoint" />
          </mxGeometry>
        </mxCell>
      </root>
    </mxGraphModel>
  </diagram>
  <diagram id="j3epFeG5fk2351LoGrUr" name="Server Code Structure">
    <mxGraphModel dx="1434" dy="835" grid="1" gridSize="10" guides="1" tooltips="1" connect="1" arrows="1" fold="1" page="1" pageScale="1" pageWidth="1100" pageHeight="850" math="0" shadow="0">
      <root>
        <mxCell id="0" />
        <mxCell id="1" parent="0" />
        <mxCell id="_X5eGwL5VJXIvGh3D2m6-1" value="" style="rounded=1;whiteSpace=wrap;html=1;arcSize=3;" parent="1" vertex="1">
          <mxGeometry x="60" y="100" width="830" height="730" as="geometry" />
        </mxCell>
        <mxCell id="CaYeox0EQYWr_rM6Q3dl-1" value="/app" style="rounded=1;whiteSpace=wrap;html=1;arcSize=3;verticalAlign=top;fontStyle=1" parent="1" vertex="1">
          <mxGeometry x="80" y="125" width="510" height="685" as="geometry" />
        </mxCell>
        <mxCell id="TGJWTKh-e2xT1O73kvgn-1" value="CDBQ01&lt;br&gt;(qnet)" style="shape=cylinder3;whiteSpace=wrap;html=1;boundedLbl=1;backgroundOutline=1;size=15;fontSize=16;" parent="1" vertex="1">
          <mxGeometry x="950" y="530" width="100" height="120" as="geometry" />
        </mxCell>
        <mxCell id="TGJWTKh-e2xT1O73kvgn-2" value="CDBF01&lt;br&gt;(tsms)" style="shape=cylinder3;whiteSpace=wrap;html=1;boundedLbl=1;backgroundOutline=1;size=15;fontSize=16;" parent="1" vertex="1">
          <mxGeometry x="950" y="390" width="100" height="120" as="geometry" />
        </mxCell>
        <mxCell id="cCOttywT9LsdxVDpNKtI-1" value="Database (Oracle)" style="text;html=1;strokeColor=none;fillColor=none;align=center;verticalAlign=middle;whiteSpace=wrap;rounded=0;fontSize=16;" parent="1" vertex="1">
          <mxGeometry x="927.5" y="670" width="145" height="30" as="geometry" />
        </mxCell>
        <mxCell id="cCOttywT9LsdxVDpNKtI-9" value="" style="endArrow=classic;html=1;rounded=0;" parent="1" source="cCOttywT9LsdxVDpNKtI-3" target="cCOttywT9LsdxVDpNKtI-31" edge="1">
          <mxGeometry width="50" height="50" relative="1" as="geometry">
            <mxPoint x="520" y="450" as="sourcePoint" />
            <mxPoint x="735" y="490" as="targetPoint" />
          </mxGeometry>
        </mxCell>
        <mxCell id="cCOttywT9LsdxVDpNKtI-11" value="" style="endArrow=classic;html=1;rounded=0;" parent="1" source="cCOttywT9LsdxVDpNKtI-31" target="TGJWTKh-e2xT1O73kvgn-2" edge="1">
          <mxGeometry width="50" height="50" relative="1" as="geometry">
            <mxPoint x="787.1311475409834" y="514.2622950819673" as="sourcePoint" />
            <mxPoint x="758.1081081081079" y="528.7837837837837" as="targetPoint" />
          </mxGeometry>
        </mxCell>
        <mxCell id="cCOttywT9LsdxVDpNKtI-12" value="" style="endArrow=classic;html=1;rounded=0;" parent="1" source="cCOttywT9LsdxVDpNKtI-31" target="TGJWTKh-e2xT1O73kvgn-1" edge="1">
          <mxGeometry width="50" height="50" relative="1" as="geometry">
            <mxPoint x="788.898305084746" y="542.2033898305085" as="sourcePoint" />
            <mxPoint x="960" y="437.5" as="targetPoint" />
          </mxGeometry>
        </mxCell>
        <mxCell id="cCOttywT9LsdxVDpNKtI-13" value="" style="group" parent="1" vertex="1" connectable="0">
          <mxGeometry x="610" y="125" width="250" height="300" as="geometry" />
        </mxCell>
        <mxCell id="CaYeox0EQYWr_rM6Q3dl-2" value="/resources" style="rounded=1;whiteSpace=wrap;html=1;arcSize=6;verticalAlign=top;fontStyle=1" parent="cCOttywT9LsdxVDpNKtI-13" vertex="1">
          <mxGeometry width="250" height="300" as="geometry" />
        </mxCell>
        <mxCell id="cCOttywT9LsdxVDpNKtI-6" value="" style="group" parent="cCOttywT9LsdxVDpNKtI-13" vertex="1" connectable="0">
          <mxGeometry x="30" y="160" width="190" height="110" as="geometry" />
        </mxCell>
        <mxCell id="cCOttywT9LsdxVDpNKtI-3" value="app.dicon" style="rounded=0;whiteSpace=wrap;html=1;verticalAlign=top;fontStyle=1" parent="cCOttywT9LsdxVDpNKtI-6" vertex="1">
          <mxGeometry width="190" height="110" as="geometry" />
        </mxCell>
        <mxCell id="cCOttywT9LsdxVDpNKtI-4" value="jdbc-qnet.dicon" style="rounded=1;whiteSpace=wrap;html=1;fontStyle=1" parent="cCOttywT9LsdxVDpNKtI-6" vertex="1">
          <mxGeometry x="30" y="25" width="110" height="35" as="geometry" />
        </mxCell>
        <mxCell id="cCOttywT9LsdxVDpNKtI-5" value="jdbc-tsms.dicon" style="rounded=1;whiteSpace=wrap;html=1;fontStyle=1" parent="cCOttywT9LsdxVDpNKtI-6" vertex="1">
          <mxGeometry x="50" y="55" width="110" height="35" as="geometry" />
        </mxCell>
        <mxCell id="cCOttywT9LsdxVDpNKtI-10" value="" style="group" parent="cCOttywT9LsdxVDpNKtI-13" vertex="1" connectable="0">
          <mxGeometry x="50" y="35" width="150" height="110" as="geometry" />
        </mxCell>
        <mxCell id="cCOttywT9LsdxVDpNKtI-7" value="application.properties" style="rounded=0;whiteSpace=wrap;html=1;" parent="cCOttywT9LsdxVDpNKtI-10" vertex="1">
          <mxGeometry width="130" height="60" as="geometry" />
        </mxCell>
        <mxCell id="cCOttywT9LsdxVDpNKtI-8" value="env.txt" style="rounded=0;whiteSpace=wrap;html=1;" parent="cCOttywT9LsdxVDpNKtI-10" vertex="1">
          <mxGeometry x="30" y="50" width="120" height="60" as="geometry" />
        </mxCell>
        <mxCell id="cCOttywT9LsdxVDpNKtI-14" value="/action" style="rounded=1;whiteSpace=wrap;html=1;fontStyle=1;verticalAlign=top;" parent="1" vertex="1">
          <mxGeometry x="170" y="170" width="340" height="100" as="geometry" />
        </mxCell>
        <mxCell id="cCOttywT9LsdxVDpNKtI-15" value="JmobileAction" style="rounded=1;whiteSpace=wrap;html=1;" parent="1" vertex="1">
          <mxGeometry x="195" y="205" width="290" height="45" as="geometry" />
        </mxCell>
        <mxCell id="cCOttywT9LsdxVDpNKtI-16" value="Tablet" style="shape=process;whiteSpace=wrap;html=1;backgroundOutline=1;fontStyle=1" parent="1" vertex="1">
          <mxGeometry x="365" y="20" width="120" height="60" as="geometry" />
        </mxCell>
        <mxCell id="cCOttywT9LsdxVDpNKtI-17" value="" style="endArrow=classic;startArrow=classic;html=1;rounded=0;entryX=0.5;entryY=1;entryDx=0;entryDy=0;exitX=0.75;exitY=0;exitDx=0;exitDy=0;" parent="1" source="cCOttywT9LsdxVDpNKtI-14" target="cCOttywT9LsdxVDpNKtI-16" edge="1">
          <mxGeometry width="50" height="50" relative="1" as="geometry">
            <mxPoint x="520" y="320" as="sourcePoint" />
            <mxPoint x="570" y="270" as="targetPoint" />
          </mxGeometry>
        </mxCell>
        <mxCell id="cCOttywT9LsdxVDpNKtI-18" value="/service" style="rounded=1;whiteSpace=wrap;html=1;fontStyle=1;verticalAlign=top;" parent="1" vertex="1">
          <mxGeometry x="120" y="310" width="210" height="100" as="geometry" />
        </mxCell>
        <mxCell id="cCOttywT9LsdxVDpNKtI-19" value="/dao" style="rounded=1;whiteSpace=wrap;html=1;fontStyle=1;verticalAlign=top;arcSize=6;" parent="1" vertex="1">
          <mxGeometry x="360" y="310" width="215" height="280" as="geometry" />
        </mxCell>
        <mxCell id="cCOttywT9LsdxVDpNKtI-20" value="TenkenKomokuService" style="rounded=1;whiteSpace=wrap;html=1;fontStyle=1" parent="1" vertex="1">
          <mxGeometry x="140" y="350" width="160" height="40" as="geometry" />
        </mxCell>
        <mxCell id="cCOttywT9LsdxVDpNKtI-21" value="AuthDao" style="rounded=1;whiteSpace=wrap;html=1;fontStyle=1" parent="1" vertex="1">
          <mxGeometry x="390" y="340" width="160" height="40" as="geometry" />
        </mxCell>
        <mxCell id="cCOttywT9LsdxVDpNKtI-22" value="LogDao" style="rounded=1;whiteSpace=wrap;html=1;fontStyle=1" parent="1" vertex="1">
          <mxGeometry x="390" y="390" width="160" height="40" as="geometry" />
        </mxCell>
        <mxCell id="cCOttywT9LsdxVDpNKtI-23" value="SagyokenmeiDao" style="rounded=1;whiteSpace=wrap;html=1;fontStyle=1" parent="1" vertex="1">
          <mxGeometry x="390" y="440" width="160" height="40" as="geometry" />
        </mxCell>
        <mxCell id="cCOttywT9LsdxVDpNKtI-24" value="TenkenDao" style="rounded=1;whiteSpace=wrap;html=1;fontStyle=1" parent="1" vertex="1">
          <mxGeometry x="390" y="490" width="160" height="40" as="geometry" />
        </mxCell>
        <mxCell id="cCOttywT9LsdxVDpNKtI-25" value="SetubiDao" style="rounded=1;whiteSpace=wrap;html=1;fontStyle=1" parent="1" vertex="1">
          <mxGeometry x="390" y="540" width="160" height="40" as="geometry" />
        </mxCell>
        <mxCell id="cCOttywT9LsdxVDpNKtI-26" value="/model" style="rounded=1;whiteSpace=wrap;html=1;fontStyle=1;verticalAlign=top;" parent="1" vertex="1">
          <mxGeometry x="120" y="440" width="210" height="140" as="geometry" />
        </mxCell>
        <mxCell id="cCOttywT9LsdxVDpNKtI-27" value="/entity" style="rounded=1;whiteSpace=wrap;html=1;fontStyle=1;verticalAlign=top;arcSize=7;" parent="1" vertex="1">
          <mxGeometry x="355" y="610" width="220" height="190" as="geometry" />
        </mxCell>
        <mxCell id="cCOttywT9LsdxVDpNKtI-28" value="/tools" style="rounded=1;whiteSpace=wrap;html=1;fontStyle=1;verticalAlign=top;" parent="1" vertex="1">
          <mxGeometry x="120" y="600" width="210" height="90" as="geometry" />
        </mxCell>
        <mxCell id="cCOttywT9LsdxVDpNKtI-29" value="Kenmei" style="rounded=1;whiteSpace=wrap;html=1;fontStyle=1" parent="1" vertex="1">
          <mxGeometry x="140" y="470" width="160" height="40" as="geometry" />
        </mxCell>
        <mxCell id="cCOttywT9LsdxVDpNKtI-30" value="" style="endArrow=classic;html=1;rounded=0;exitX=1;exitY=0.5;exitDx=0;exitDy=0;entryX=0.5;entryY=1;entryDx=0;entryDy=0;" parent="1" source="cCOttywT9LsdxVDpNKtI-27" target="cCOttywT9LsdxVDpNKtI-31" edge="1">
          <mxGeometry width="50" height="50" relative="1" as="geometry">
            <mxPoint x="745" y="405" as="sourcePoint" />
            <mxPoint x="695" y="530" as="targetPoint" />
          </mxGeometry>
        </mxCell>
        <mxCell id="cCOttywT9LsdxVDpNKtI-31" value="seasar&lt;br style=&quot;border-color: var(--border-color);&quot;&gt;struts" style="rounded=1;whiteSpace=wrap;html=1;" parent="1" vertex="1">
          <mxGeometry x="675" y="500" width="120" height="60" as="geometry" />
        </mxCell>
        <mxCell id="cCOttywT9LsdxVDpNKtI-32" value="FistaTenkenH" style="rounded=1;whiteSpace=wrap;html=1;fontStyle=1" parent="1" vertex="1">
          <mxGeometry x="390" y="640" width="160" height="40" as="geometry" />
        </mxCell>
        <mxCell id="cCOttywT9LsdxVDpNKtI-33" value="TenkenData" style="rounded=1;whiteSpace=wrap;html=1;fontStyle=1" parent="1" vertex="1">
          <mxGeometry x="140" y="520" width="160" height="40" as="geometry" />
        </mxCell>
        <mxCell id="cCOttywT9LsdxVDpNKtI-34" value="CommonUtil" style="rounded=1;whiteSpace=wrap;html=1;fontStyle=1" parent="1" vertex="1">
          <mxGeometry x="140" y="630" width="160" height="40" as="geometry" />
        </mxCell>
        <mxCell id="cCOttywT9LsdxVDpNKtI-35" value="FwptaSagyokenmei" style="rounded=1;whiteSpace=wrap;html=1;fontStyle=1" parent="1" vertex="1">
          <mxGeometry x="390" y="690" width="160" height="40" as="geometry" />
        </mxCell>
        <mxCell id="cCOttywT9LsdxVDpNKtI-36" value="FistaNitijyojyunsiH" style="rounded=1;whiteSpace=wrap;html=1;fontStyle=1" parent="1" vertex="1">
          <mxGeometry x="390" y="740" width="160" height="40" as="geometry" />
        </mxCell>
        <mxCell id="cCOttywT9LsdxVDpNKtI-37" value="" style="endArrow=classic;html=1;rounded=0;entryX=1;entryY=0.5;entryDx=0;entryDy=0;" parent="1" source="cCOttywT9LsdxVDpNKtI-19" target="cCOttywT9LsdxVDpNKtI-18" edge="1">
          <mxGeometry width="50" height="50" relative="1" as="geometry">
            <mxPoint x="520" y="700" as="sourcePoint" />
            <mxPoint x="570" y="650" as="targetPoint" />
          </mxGeometry>
        </mxCell>
        <mxCell id="cCOttywT9LsdxVDpNKtI-38" value="" style="endArrow=classic;html=1;rounded=0;entryX=0.5;entryY=1;entryDx=0;entryDy=0;" parent="1" source="cCOttywT9LsdxVDpNKtI-27" target="cCOttywT9LsdxVDpNKtI-19" edge="1">
          <mxGeometry width="50" height="50" relative="1" as="geometry">
            <mxPoint x="365" y="386.66666666666674" as="sourcePoint" />
            <mxPoint x="340" y="370" as="targetPoint" />
          </mxGeometry>
        </mxCell>
        <mxCell id="cCOttywT9LsdxVDpNKtI-39" value="" style="edgeStyle=segmentEdgeStyle;endArrow=classic;html=1;curved=0;rounded=0;endSize=8;startSize=8;exitX=0;exitY=0.5;exitDx=0;exitDy=0;entryX=0;entryY=0.5;entryDx=0;entryDy=0;" parent="1" source="cCOttywT9LsdxVDpNKtI-28" target="cCOttywT9LsdxVDpNKtI-14" edge="1">
          <mxGeometry width="50" height="50" relative="1" as="geometry">
            <mxPoint x="520" y="450" as="sourcePoint" />
            <mxPoint x="570" y="400" as="targetPoint" />
            <Array as="points">
              <mxPoint x="100" y="650" />
              <mxPoint x="100" y="220" />
            </Array>
          </mxGeometry>
        </mxCell>
        <mxCell id="cCOttywT9LsdxVDpNKtI-40" value="" style="edgeStyle=segmentEdgeStyle;endArrow=classic;html=1;curved=0;rounded=0;endSize=8;startSize=8;exitX=0.5;exitY=0;exitDx=0;exitDy=0;" parent="1" source="cCOttywT9LsdxVDpNKtI-18" target="cCOttywT9LsdxVDpNKtI-14" edge="1">
          <mxGeometry width="50" height="50" relative="1" as="geometry">
            <mxPoint x="520" y="450" as="sourcePoint" />
            <mxPoint x="570" y="400" as="targetPoint" />
            <Array as="points">
              <mxPoint x="225" y="290" />
              <mxPoint x="340" y="290" />
            </Array>
          </mxGeometry>
        </mxCell>
        <mxCell id="cCOttywT9LsdxVDpNKtI-41" value="" style="edgeStyle=segmentEdgeStyle;endArrow=classic;html=1;curved=0;rounded=0;endSize=8;startSize=8;entryX=0.5;entryY=1;entryDx=0;entryDy=0;exitX=0.5;exitY=0;exitDx=0;exitDy=0;" parent="1" source="cCOttywT9LsdxVDpNKtI-26" target="cCOttywT9LsdxVDpNKtI-18" edge="1">
          <mxGeometry width="50" height="50" relative="1" as="geometry">
            <mxPoint x="235" y="320" as="sourcePoint" />
            <mxPoint x="350" y="280" as="targetPoint" />
            <Array as="points">
              <mxPoint x="225" y="440" />
              <mxPoint x="225" y="440" />
            </Array>
          </mxGeometry>
        </mxCell>
        <mxCell id="cCOttywT9LsdxVDpNKtI-42" value="/common" style="rounded=1;whiteSpace=wrap;html=1;fontStyle=1;verticalAlign=top;" parent="1" vertex="1">
          <mxGeometry x="120" y="710" width="210" height="90" as="geometry" />
        </mxCell>
        <mxCell id="cCOttywT9LsdxVDpNKtI-43" value="Const" style="rounded=1;whiteSpace=wrap;html=1;fontStyle=1" parent="1" vertex="1">
          <mxGeometry x="145" y="735" width="160" height="40" as="geometry" />
        </mxCell>
      </root>
    </mxGraphModel>
  </diagram>
  <diagram id="01CsLJibUCyL5VOA86YY" name="Mobile Code Structure">
    <mxGraphModel dx="2609" dy="879" grid="1" gridSize="8" guides="1" tooltips="1" connect="1" arrows="1" fold="1" page="1" pageScale="1" pageWidth="1100" pageHeight="850" math="0" shadow="0">
      <root>
        <mxCell id="0" />
        <mxCell id="1" parent="0" />
        <mxCell id="azaacrHxMonbJ5d5FTFf-1" value="&lt;b&gt;app&lt;/b&gt;" style="rounded=1;whiteSpace=wrap;html=1;fontSize=16;arcSize=3;verticalAlign=top;" parent="1" vertex="1">
          <mxGeometry x="-1072" y="128" width="1224" height="646" as="geometry" />
        </mxCell>
        <mxCell id="azaacrHxMonbJ5d5FTFf-2" value="&lt;b&gt;/java/jmob.a&lt;/b&gt;" style="rounded=1;whiteSpace=wrap;html=1;fontSize=16;arcSize=6;verticalAlign=top;" parent="1" vertex="1">
          <mxGeometry x="-1032" y="174" width="810" height="562" as="geometry" />
        </mxCell>
        <mxCell id="azaacrHxMonbJ5d5FTFf-3" value="&lt;b&gt;/res&lt;/b&gt;&lt;br&gt;(resources)" style="rounded=1;whiteSpace=wrap;html=1;fontSize=16;arcSize=8;verticalAlign=top;" parent="1" vertex="1">
          <mxGeometry x="-192" y="394" width="320" height="342" as="geometry" />
        </mxCell>
        <mxCell id="azaacrHxMonbJ5d5FTFf-8" value="" style="group" parent="1" connectable="0" vertex="1">
          <mxGeometry x="-120" y="174" width="248" height="194" as="geometry" />
        </mxCell>
        <mxCell id="azaacrHxMonbJ5d5FTFf-4" value="&lt;b&gt;/assets&lt;/b&gt;" style="rounded=1;whiteSpace=wrap;html=1;fontSize=16;verticalAlign=top;arcSize=9;" parent="azaacrHxMonbJ5d5FTFf-8" vertex="1">
          <mxGeometry width="248" height="194" as="geometry" />
        </mxCell>
        <mxCell id="azaacrHxMonbJ5d5FTFf-6" value="jmob.db" style="shape=cylinder3;whiteSpace=wrap;html=1;boundedLbl=1;backgroundOutline=1;size=15;fontSize=16;" parent="azaacrHxMonbJ5d5FTFf-8" vertex="1">
          <mxGeometry x="65.6470588235294" y="45.647058823529406" width="116.70588235294117" height="91.29411764705881" as="geometry" />
        </mxCell>
        <mxCell id="azaacrHxMonbJ5d5FTFf-7" value="Master data use when reset database" style="text;html=1;strokeColor=none;fillColor=none;align=center;verticalAlign=middle;whiteSpace=wrap;rounded=0;fontSize=14;" parent="azaacrHxMonbJ5d5FTFf-8" vertex="1">
          <mxGeometry x="56" y="136.94" width="144.71" height="51.35" as="geometry" />
        </mxCell>
        <mxCell id="azaacrHxMonbJ5d5FTFf-10" value="&lt;b&gt;/color, /font, /drawable, /values, ...&lt;/b&gt;&lt;br&gt;Common resources defines color, font, base styles, constants, ..." style="rounded=1;whiteSpace=wrap;html=1;fontSize=14;" parent="1" vertex="1">
          <mxGeometry x="-162" y="464" width="270" height="90" as="geometry" />
        </mxCell>
        <mxCell id="azaacrHxMonbJ5d5FTFf-11" value="&lt;b&gt;/layout&lt;/b&gt;&lt;br&gt;Contain all screen layouts" style="rounded=1;whiteSpace=wrap;html=1;fontSize=14;" parent="1" vertex="1">
          <mxGeometry x="-162" y="594" width="270" height="90" as="geometry" />
        </mxCell>
        <mxCell id="azaacrHxMonbJ5d5FTFf-24" value="" style="endArrow=classic;html=1;rounded=0;fontSize=14;entryX=0.5;entryY=0;entryDx=0;entryDy=0;exitX=0.5;exitY=1;exitDx=0;exitDy=0;" parent="1" source="azaacrHxMonbJ5d5FTFf-10" target="azaacrHxMonbJ5d5FTFf-11" edge="1">
          <mxGeometry width="50" height="50" relative="1" as="geometry">
            <mxPoint x="-272" y="474" as="sourcePoint" />
            <mxPoint x="-222" y="424" as="targetPoint" />
          </mxGeometry>
        </mxCell>
        <mxCell id="azaacrHxMonbJ5d5FTFf-39" value="" style="group" parent="1" connectable="0" vertex="1">
          <mxGeometry x="-696" y="240" width="290" height="160" as="geometry" />
        </mxCell>
        <mxCell id="azaacrHxMonbJ5d5FTFf-12" value="&lt;b&gt;/db&lt;/b&gt;" style="rounded=1;whiteSpace=wrap;html=1;fontSize=14;verticalAlign=top;" parent="azaacrHxMonbJ5d5FTFf-39" vertex="1">
          <mxGeometry width="290" height="160" as="geometry" />
        </mxCell>
        <mxCell id="azaacrHxMonbJ5d5FTFf-13" value="&lt;b&gt;/dao&lt;/b&gt;&lt;br&gt;Data Access Object" style="rounded=1;whiteSpace=wrap;html=1;fontSize=14;" parent="azaacrHxMonbJ5d5FTFf-39" vertex="1">
          <mxGeometry x="22" y="40" width="100" height="90" as="geometry" />
        </mxCell>
        <mxCell id="azaacrHxMonbJ5d5FTFf-14" value="&lt;b&gt;/entity&lt;/b&gt;&lt;br&gt;Entity classes for mapping table" style="rounded=1;whiteSpace=wrap;html=1;fontSize=14;" parent="azaacrHxMonbJ5d5FTFf-39" vertex="1">
          <mxGeometry x="140" y="40" width="130" height="90" as="geometry" />
        </mxCell>
        <mxCell id="azaacrHxMonbJ5d5FTFf-35" style="edgeStyle=orthogonalEdgeStyle;rounded=0;orthogonalLoop=1;jettySize=auto;html=1;exitX=0;exitY=0.5;exitDx=0;exitDy=0;fontSize=14;" parent="azaacrHxMonbJ5d5FTFf-39" source="azaacrHxMonbJ5d5FTFf-14" target="azaacrHxMonbJ5d5FTFf-13" edge="1">
          <mxGeometry relative="1" as="geometry" />
        </mxCell>
        <mxCell id="azaacrHxMonbJ5d5FTFf-43" value="" style="group" parent="1" connectable="0" vertex="1">
          <mxGeometry x="-536" y="454" width="290" height="250" as="geometry" />
        </mxCell>
        <mxCell id="azaacrHxMonbJ5d5FTFf-17" value="&lt;b&gt;/ui&lt;/b&gt;" style="rounded=1;whiteSpace=wrap;html=1;fontSize=14;verticalAlign=top;" parent="azaacrHxMonbJ5d5FTFf-43" vertex="1">
          <mxGeometry width="290" height="250" as="geometry" />
        </mxCell>
        <mxCell id="azaacrHxMonbJ5d5FTFf-18" value="&lt;b&gt;/fragment&lt;/b&gt;&lt;br&gt;Fragment" style="rounded=1;whiteSpace=wrap;html=1;fontSize=14;fillColor=#dae8fc;strokeColor=#6c8ebf;" parent="azaacrHxMonbJ5d5FTFf-43" vertex="1">
          <mxGeometry x="20" y="140" width="100" height="90" as="geometry" />
        </mxCell>
        <mxCell id="azaacrHxMonbJ5d5FTFf-19" value="&lt;b&gt;/viewmodel&lt;/b&gt;&lt;br&gt;&lt;font style=&quot;font-size: 12px;&quot;&gt;Binding data with layout&lt;/font&gt;" style="rounded=1;whiteSpace=wrap;html=1;fontSize=14;" parent="azaacrHxMonbJ5d5FTFf-43" vertex="1">
          <mxGeometry x="160" y="140" width="100" height="90" as="geometry" />
        </mxCell>
        <mxCell id="azaacrHxMonbJ5d5FTFf-29" value="&lt;b&gt;/controller&lt;/b&gt;&lt;br&gt;&lt;font style=&quot;font-size: 12px;&quot;&gt;Navigation between fragment&lt;/font&gt;" style="rounded=1;whiteSpace=wrap;html=1;fontSize=14;" parent="azaacrHxMonbJ5d5FTFf-43" vertex="1">
          <mxGeometry x="20" y="30" width="100" height="90" as="geometry" />
        </mxCell>
        <mxCell id="azaacrHxMonbJ5d5FTFf-31" value="&lt;b&gt;/adapter&lt;/b&gt;&lt;br&gt;&lt;font style=&quot;font-size: 13px;&quot;&gt;Adapter for dynamic data component&lt;/font&gt;" style="rounded=1;whiteSpace=wrap;html=1;fontSize=14;" parent="azaacrHxMonbJ5d5FTFf-43" vertex="1">
          <mxGeometry x="160" y="30" width="100" height="90" as="geometry" />
        </mxCell>
        <mxCell id="azaacrHxMonbJ5d5FTFf-20" value="" style="endArrow=classic;startArrow=classic;html=1;rounded=0;fontSize=14;" parent="azaacrHxMonbJ5d5FTFf-43" source="azaacrHxMonbJ5d5FTFf-18" target="azaacrHxMonbJ5d5FTFf-19" edge="1">
          <mxGeometry width="50" height="50" relative="1" as="geometry">
            <mxPoint x="510" y="530" as="sourcePoint" />
            <mxPoint x="560" y="480" as="targetPoint" />
          </mxGeometry>
        </mxCell>
        <mxCell id="azaacrHxMonbJ5d5FTFf-40" style="edgeStyle=orthogonalEdgeStyle;rounded=0;orthogonalLoop=1;jettySize=auto;html=1;exitX=0.5;exitY=1;exitDx=0;exitDy=0;fontSize=14;" parent="azaacrHxMonbJ5d5FTFf-43" source="azaacrHxMonbJ5d5FTFf-29" target="azaacrHxMonbJ5d5FTFf-18" edge="1">
          <mxGeometry relative="1" as="geometry" />
        </mxCell>
        <mxCell id="azaacrHxMonbJ5d5FTFf-41" style="edgeStyle=orthogonalEdgeStyle;rounded=0;orthogonalLoop=1;jettySize=auto;html=1;entryX=0.993;entryY=0.056;entryDx=0;entryDy=0;entryPerimeter=0;fontSize=14;" parent="azaacrHxMonbJ5d5FTFf-43" source="azaacrHxMonbJ5d5FTFf-31" target="azaacrHxMonbJ5d5FTFf-18" edge="1">
          <mxGeometry relative="1" as="geometry" />
        </mxCell>
        <mxCell id="azaacrHxMonbJ5d5FTFf-61" value="" style="verticalLabelPosition=bottom;verticalAlign=top;html=1;shape=mxgraph.basic.6_point_star;fontSize=12;fillColor=#f8cecc;strokeColor=#b85450;" parent="azaacrHxMonbJ5d5FTFf-43" vertex="1">
          <mxGeometry x="88" y="204" width="24" height="20" as="geometry" />
        </mxCell>
        <mxCell id="wqQGThLmbtXESiwLLEhb-30" value="" style="endArrow=classic;html=1;rounded=0;" parent="azaacrHxMonbJ5d5FTFf-43" source="azaacrHxMonbJ5d5FTFf-29" target="azaacrHxMonbJ5d5FTFf-19" edge="1">
          <mxGeometry width="50" height="50" relative="1" as="geometry">
            <mxPoint x="32" y="220" as="sourcePoint" />
            <mxPoint x="82" y="170" as="targetPoint" />
          </mxGeometry>
        </mxCell>
        <mxCell id="azaacrHxMonbJ5d5FTFf-45" value="&lt;b&gt;&amp;nbsp;/api&lt;/b&gt;" style="rounded=1;whiteSpace=wrap;html=1;fontSize=14;verticalAlign=top;align=left;" parent="1" vertex="1">
          <mxGeometry x="-896" y="240" width="160" height="158" as="geometry" />
        </mxCell>
        <mxCell id="azaacrHxMonbJ5d5FTFf-46" value="&lt;b&gt;JMobService&lt;/b&gt;&lt;br&gt;&lt;font style=&quot;font-size: 12px;&quot;&gt;API services&lt;/font&gt;" style="rounded=1;whiteSpace=wrap;html=1;fontSize=14;" parent="1" vertex="1">
          <mxGeometry x="-876" y="287.37" width="120" height="80.63" as="geometry" />
        </mxCell>
        <mxCell id="azaacrHxMonbJ5d5FTFf-49" value="Server" style="ellipse;shape=cloud;whiteSpace=wrap;html=1;fontSize=14;fontStyle=1" parent="1" vertex="1">
          <mxGeometry x="-901" y="8" width="170" height="100" as="geometry" />
        </mxCell>
        <mxCell id="azaacrHxMonbJ5d5FTFf-51" value="&lt;b&gt;&amp;nbsp;/data&lt;/b&gt;" style="rounded=1;whiteSpace=wrap;html=1;fontSize=14;verticalAlign=top;align=right;" parent="1" vertex="1">
          <mxGeometry x="-696" y="454" width="144" height="146" as="geometry" />
        </mxCell>
        <mxCell id="azaacrHxMonbJ5d5FTFf-50" value="" style="endArrow=classic;startArrow=classic;html=1;rounded=0;fontSize=14;" parent="1" source="azaacrHxMonbJ5d5FTFf-46" target="azaacrHxMonbJ5d5FTFf-49" edge="1">
          <mxGeometry width="50" height="50" relative="1" as="geometry">
            <mxPoint x="-212" y="304" as="sourcePoint" />
            <mxPoint x="-162" y="254" as="targetPoint" />
          </mxGeometry>
        </mxCell>
        <mxCell id="azaacrHxMonbJ5d5FTFf-52" value="&lt;b&gt;/repository&lt;/b&gt;&lt;br&gt;&lt;font style=&quot;font-size: 12px;&quot;&gt;Decide where should get data from?&lt;/font&gt;" style="rounded=1;whiteSpace=wrap;html=1;fontSize=14;verticalAlign=top;" parent="1" vertex="1">
          <mxGeometry x="-680" y="494.69000000000005" width="112" height="80.63" as="geometry" />
        </mxCell>
        <mxCell id="azaacrHxMonbJ5d5FTFf-57" value="" style="endArrow=classic;startArrow=classic;html=1;rounded=0;fontSize=14;" parent="1" source="azaacrHxMonbJ5d5FTFf-52" edge="1">
          <mxGeometry width="50" height="50" relative="1" as="geometry">
            <mxPoint x="-144" y="538" as="sourcePoint" />
            <mxPoint x="-624" y="368" as="targetPoint" />
          </mxGeometry>
        </mxCell>
        <mxCell id="azaacrHxMonbJ5d5FTFf-59" style="edgeStyle=orthogonalEdgeStyle;rounded=0;orthogonalLoop=1;jettySize=auto;html=1;exitX=0.5;exitY=1;exitDx=0;exitDy=0;fontSize=14;" parent="1" source="azaacrHxMonbJ5d5FTFf-19" target="azaacrHxMonbJ5d5FTFf-52" edge="1">
          <mxGeometry relative="1" as="geometry">
            <Array as="points">
              <mxPoint x="-326" y="720" />
              <mxPoint x="-629" y="720" />
            </Array>
          </mxGeometry>
        </mxCell>
        <mxCell id="azaacrHxMonbJ5d5FTFf-60" value="" style="curved=1;endArrow=classic;html=1;rounded=0;fontSize=12;entryX=0;entryY=0.5;entryDx=0;entryDy=0;entryPerimeter=0;exitX=1;exitY=0.5;exitDx=0;exitDy=0;" parent="1" source="azaacrHxMonbJ5d5FTFf-14" target="azaacrHxMonbJ5d5FTFf-6" edge="1">
          <mxGeometry width="50" height="50" relative="1" as="geometry">
            <mxPoint x="-170" y="330" as="sourcePoint" />
            <mxPoint x="-120" y="280" as="targetPoint" />
            <Array as="points">
              <mxPoint x="-120" y="330" />
              <mxPoint x="-170" y="280" />
            </Array>
          </mxGeometry>
        </mxCell>
        <mxCell id="azaacrHxMonbJ5d5FTFf-63" value="" style="endArrow=classic;html=1;rounded=0;fontSize=12;entryX=1;entryY=0.5;entryDx=0;entryDy=0;exitX=0;exitY=0.5;exitDx=0;exitDy=0;" parent="1" source="azaacrHxMonbJ5d5FTFf-11" target="azaacrHxMonbJ5d5FTFf-19" edge="1">
          <mxGeometry width="50" height="50" relative="1" as="geometry">
            <mxPoint x="-568" y="490" as="sourcePoint" />
            <mxPoint x="-518" y="440" as="targetPoint" />
          </mxGeometry>
        </mxCell>
        <mxCell id="wqQGThLmbtXESiwLLEhb-1" value="&lt;b&gt;&amp;nbsp;/service&lt;/b&gt;" style="rounded=1;whiteSpace=wrap;html=1;fontSize=14;verticalAlign=top;align=center;" parent="1" vertex="1">
          <mxGeometry x="-1016" y="455.32" width="280" height="240.68" as="geometry" />
        </mxCell>
        <mxCell id="wqQGThLmbtXESiwLLEhb-2" value="&lt;b&gt;JMobPeriodicService&lt;/b&gt;" style="rounded=1;whiteSpace=wrap;html=1;fontSize=14;verticalAlign=top;" parent="1" vertex="1">
          <mxGeometry x="-968" y="640" width="200" height="32" as="geometry" />
        </mxCell>
        <mxCell id="wqQGThLmbtXESiwLLEhb-4" value="&lt;b&gt;Workers&lt;/b&gt;" style="rounded=1;whiteSpace=wrap;html=1;fontSize=14;verticalAlign=top;" parent="1" vertex="1">
          <mxGeometry x="-984" y="488" width="224" height="128" as="geometry" />
        </mxCell>
        <mxCell id="wqQGThLmbtXESiwLLEhb-9" style="edgeStyle=orthogonalEdgeStyle;rounded=0;orthogonalLoop=1;jettySize=auto;html=1;fontSize=14;exitX=0;exitY=0.5;exitDx=0;exitDy=0;" parent="1" source="wqQGThLmbtXESiwLLEhb-2" target="wqQGThLmbtXESiwLLEhb-4" edge="1">
          <mxGeometry relative="1" as="geometry">
            <mxPoint x="-368.00000000000045" y="537.0588235294117" as="sourcePoint" />
            <mxPoint x="-408.6999999999998" y="607.0400000000002" as="targetPoint" />
            <Array as="points">
              <mxPoint x="-1000" y="656" />
              <mxPoint x="-1000" y="552" />
            </Array>
          </mxGeometry>
        </mxCell>
        <mxCell id="wqQGThLmbtXESiwLLEhb-3" value="&lt;span&gt;WorkerGetTenken&lt;/span&gt;" style="rounded=1;whiteSpace=wrap;html=1;fontSize=14;verticalAlign=top;fontStyle=0" parent="1" vertex="1">
          <mxGeometry x="-968" y="518.5" width="163.5" height="32" as="geometry" />
        </mxCell>
        <mxCell id="wqQGThLmbtXESiwLLEhb-11" style="edgeStyle=orthogonalEdgeStyle;rounded=0;orthogonalLoop=1;jettySize=auto;html=1;entryX=0.75;entryY=1;entryDx=0;entryDy=0;fontSize=14;" parent="1" source="azaacrHxMonbJ5d5FTFf-52" target="azaacrHxMonbJ5d5FTFf-46" edge="1">
          <mxGeometry relative="1" as="geometry">
            <mxPoint x="-751.3" y="408" as="sourcePoint" />
            <mxPoint x="-791.9999999999998" y="478.03999999999996" as="targetPoint" />
            <Array as="points">
              <mxPoint x="-648" y="424" />
              <mxPoint x="-786" y="424" />
            </Array>
          </mxGeometry>
        </mxCell>
        <mxCell id="wqQGThLmbtXESiwLLEhb-12" style="edgeStyle=orthogonalEdgeStyle;rounded=0;orthogonalLoop=1;jettySize=auto;html=1;entryX=0.5;entryY=1;entryDx=0;entryDy=0;fontSize=14;" parent="1" source="wqQGThLmbtXESiwLLEhb-4" target="azaacrHxMonbJ5d5FTFf-46" edge="1">
          <mxGeometry relative="1" as="geometry">
            <mxPoint x="-672" y="543" as="sourcePoint" />
            <mxPoint x="-748.5" y="321.9950000000001" as="targetPoint" />
            <Array as="points">
              <mxPoint x="-816" y="440" />
              <mxPoint x="-816" y="440" />
            </Array>
          </mxGeometry>
        </mxCell>
        <mxCell id="wqQGThLmbtXESiwLLEhb-14" style="edgeStyle=orthogonalEdgeStyle;rounded=0;orthogonalLoop=1;jettySize=auto;html=1;fontSize=14;entryX=0;entryY=0.5;entryDx=0;entryDy=0;" parent="1" target="azaacrHxMonbJ5d5FTFf-13" edge="1">
          <mxGeometry relative="1" as="geometry">
            <mxPoint x="-760" y="568" as="sourcePoint" />
            <mxPoint x="-808.5" y="362.30999999999995" as="targetPoint" />
            <Array as="points">
              <mxPoint x="-712" y="568" />
              <mxPoint x="-712" y="325" />
            </Array>
          </mxGeometry>
        </mxCell>
        <mxCell id="wqQGThLmbtXESiwLLEhb-16" value="&lt;span&gt;WorkerUpload&lt;/span&gt;" style="rounded=1;whiteSpace=wrap;html=1;fontSize=14;verticalAlign=top;fontStyle=0" parent="1" vertex="1">
          <mxGeometry x="-952" y="543.32" width="163.5" height="32" as="geometry" />
        </mxCell>
        <mxCell id="wqQGThLmbtXESiwLLEhb-17" value="&lt;span&gt;WorkerDelete&lt;/span&gt;" style="rounded=1;whiteSpace=wrap;html=1;fontSize=14;verticalAlign=top;fontStyle=0" parent="1" vertex="1">
          <mxGeometry x="-944" y="568" width="163.5" height="32" as="geometry" />
        </mxCell>
        <mxCell id="wqQGThLmbtXESiwLLEhb-19" value="" style="endArrow=classic;html=1;rounded=0;entryX=0.5;entryY=0;entryDx=0;entryDy=0;" parent="1" source="azaacrHxMonbJ5d5FTFf-61" target="wqQGThLmbtXESiwLLEhb-20" edge="1">
          <mxGeometry width="50" height="50" relative="1" as="geometry">
            <mxPoint x="-408" y="882" as="sourcePoint" />
            <mxPoint x="-481" y="818" as="targetPoint" />
          </mxGeometry>
        </mxCell>
        <mxCell id="wqQGThLmbtXESiwLLEhb-27" value="" style="group" parent="1" vertex="1" connectable="0">
          <mxGeometry x="-568" y="808" width="336" height="128" as="geometry" />
        </mxCell>
        <mxCell id="wqQGThLmbtXESiwLLEhb-20" value="" style="rounded=0;whiteSpace=wrap;html=1;" parent="wqQGThLmbtXESiwLLEhb-27" vertex="1">
          <mxGeometry width="336" height="128" as="geometry" />
        </mxCell>
        <mxCell id="wqQGThLmbtXESiwLLEhb-22" value="&lt;b&gt;/ui/activity&lt;/b&gt;&lt;br&gt;&lt;b&gt;MainActivity &lt;/b&gt;&lt;br&gt;(Entry Point)" style="rounded=0;whiteSpace=wrap;html=1;" parent="wqQGThLmbtXESiwLLEhb-27" vertex="1">
          <mxGeometry x="32" y="32" width="120" height="60" as="geometry" />
        </mxCell>
        <mxCell id="wqQGThLmbtXESiwLLEhb-23" value="&lt;b&gt;Login Fragment&lt;/b&gt;" style="rounded=0;whiteSpace=wrap;html=1;" parent="wqQGThLmbtXESiwLLEhb-27" vertex="1">
          <mxGeometry x="192" y="32" width="120" height="60" as="geometry" />
        </mxCell>
        <mxCell id="wqQGThLmbtXESiwLLEhb-24" value="" style="endArrow=classic;html=1;rounded=0;entryX=0;entryY=0.5;entryDx=0;entryDy=0;exitX=1;exitY=0.5;exitDx=0;exitDy=0;" parent="wqQGThLmbtXESiwLLEhb-27" source="wqQGThLmbtXESiwLLEhb-22" target="wqQGThLmbtXESiwLLEhb-23" edge="1">
          <mxGeometry width="50" height="50" relative="1" as="geometry">
            <mxPoint x="216.85714285714266" y="-122" as="sourcePoint" />
            <mxPoint x="176" y="8" as="targetPoint" />
          </mxGeometry>
        </mxCell>
        <mxCell id="wqQGThLmbtXESiwLLEhb-31" style="edgeStyle=orthogonalEdgeStyle;rounded=0;orthogonalLoop=1;jettySize=auto;html=1;exitX=0.5;exitY=1;exitDx=0;exitDy=0;fontSize=14;entryX=0;entryY=0.5;entryDx=0;entryDy=0;" parent="1" source="azaacrHxMonbJ5d5FTFf-19" target="azaacrHxMonbJ5d5FTFf-13" edge="1">
          <mxGeometry relative="1" as="geometry">
            <Array as="points">
              <mxPoint x="-326" y="720" />
              <mxPoint x="-712" y="720" />
              <mxPoint x="-712" y="325" />
            </Array>
            <mxPoint x="-318" y="692" as="sourcePoint" />
            <mxPoint x="-621" y="583.3200000000002" as="targetPoint" />
          </mxGeometry>
        </mxCell>
      </root>
    </mxGraphModel>
  </diagram>
</mxfile>
